/vscmnt/brussel_pixiu_data/_data_brussel/112/vsc11236/PredSimResults/SUBJ06opt3D/weighted-LRposFixed/expIG/worker_03.mot
version=1
nRows=4
nColumns=50
inDegrees=yes
endheader
                time	         pelvis_tilt	         pelvis_list	     pelvis_rotation	           pelvis_tx	           pelvis_ty	           pelvis_tz	       hip_flexion_r	     hip_adduction_r	      hip_rotation_r	        knee_angle_r	       ankle_angle_r	         mtp_angle_r	       hip_flexion_l	     hip_adduction_l	      hip_rotation_l	        knee_angle_l	       ankle_angle_l	         mtp_angle_l	    lumbar_extension	      lumbar_bending	     lumbar_rotation	 ercspn_r/activation	 intobl_r/activation	 extobl_r/activation	    abd_r/activation	    add_r/activation	hamstrings_r/activation	bifemsh_r/activation	glut_max_r/activation	iliopsoas_r/activation	rect_fem_r/activation	  vasti_r/activation	gastroc_r/activation	 soleus_r/activation	tib_ant_r/activation	 ercspn_l/activation	 intobl_l/activation	 extobl_l/activation	    abd_l/activation	    add_l/activation	hamstrings_l/activation	bifemsh_l/activation	glut_max_l/activation	iliopsoas_l/activation	rect_fem_l/activation	  vasti_l/activation	gastroc_l/activation	 soleus_l/activation	tib_ant_l/activation	
          1.22964084	         -6.55196669	         -0.83178489	          4.16107368	          1.37719774	          0.92855347	         -0.01095628	         32.63077603	         -1.04495902	         -6.32404960	         -7.25232010	          0.28563961	          0.22708326	         -9.28925528	         -0.31920566	         -5.67064327	        -10.65097545	          9.72961782	         32.22552473	         -5.26938735	         -0.50580129	         -7.97609333	          0.19393415	          0.15911063	          0.01000003	          0.01000001	          0.29022462	          0.07033930	          0.12204698	          0.01443824	          0.12757359	          0.01202706	          0.01000001	          0.01000010	          0.01000000	          0.51837219	          0.11890303	          0.01000000	          0.01000001	          0.09438725	          0.01000009	          0.01000006	          0.27781048	          0.01690095	          0.66029309	          0.01451867	          0.01000001	          0.25626401	          0.40797595	          0.02539960	
          1.24193725	         -6.65809667	         -0.76823085	          4.19583784	          1.39379019	          0.92658926	         -0.01010565	         32.97336718	         -0.91467630	         -6.24291511	         -9.25981192	         -0.00332928	          0.22358737	         -9.71852044	         -0.41667262	         -6.05455882	        -11.49196258	          8.84505851	         34.12323703	         -4.94693718	         -0.16672456	         -8.49117583	          0.17573082	          0.13204858	          0.01000003	          0.00999999	          0.42236232	          0.07349929	          0.10128885	          0.08035310	          0.10587546	          0.01000010	          0.01000001	          0.01451878	          0.01749426	          0.52473427	          0.17101127	          0.01000000	          0.01000000	          0.07833356	          0.01000017	          0.01000010	          0.24775331	          0.01451876	          0.68627021	          0.01204960	          0.01000002	          0.23197324	          0.38784015	          0.02107955	
          1.25423366	         -6.73807551	         -0.75522262	          4.21662184	          1.41089365	          0.92487032	         -0.00922323	         33.09318389	         -0.82235009	         -5.97102586	        -11.21251623	         -0.21953639	          0.19406404	        -10.02618823	         -0.59770460	         -6.42672203	        -12.63465955	          7.81936625	         36.09087820	         -4.59094062	          0.23733165	         -8.96374959	          0.14584197	          0.10958934	          0.01000002	          0.02246168	          0.35052559	          0.07922843	          0.08406134	          0.10173079	          0.08786782	          0.01000001	          0.01000001	          0.01204961	          0.01451879	          0.56325920	          0.16307417	          0.01000000	          0.01000001	          0.06501033	          0.01000036	          0.01001405	          0.22981911	          0.01204939	          0.67298890	          0.01000025	          0.01000001	          0.19251849	          0.35968683	          0.01749428	
          1.26653006	         -6.79533129	         -0.77948247	          4.21340183	          1.42828634	          0.92346782	         -0.00820630	         33.03946881	         -0.71428906	         -5.83955202	        -12.91946165	         -0.51664209	          0.17977468	        -10.13531880	         -0.85863130	         -6.80124204	        -14.18180762	          6.62665228	         38.12594635	         -4.22849562	          0.67622906	         -9.38395942	          0.15505023	          0.09095003	          0.01000002	          0.06139829	          0.33508016	          0.08006801	          0.06976393	          0.13066998	          0.07292298	          0.01000002	          0.02484730	          0.01000021	          0.01204939	          0.60288977	          0.16673092	          0.01000000	          0.01000001	          0.05395316	          0.01000010	          0.01000019	          0.20983524	          0.01000002	          0.63274745	          0.01000014	          0.01000000	          0.15977433	          0.33202795	          0.01451879	
